<?xml version="1.0" encoding="UTF-8"?>
<svg id="Layer_1" data-name="Layer 1" xmlns="http://www.w3.org/2000/svg" xmlns:xlink="http://www.w3.org/1999/xlink" viewBox="0 0 1024 1024">
  <defs>
    <style>
      .cls-1 {
        fill: url(#linear-gradient-2);
      }

      .cls-2 {
        fill: none;
        stroke: url(#linear-gradient-3);
        stroke-linecap: round;
        stroke-linejoin: round;
        stroke-width: 69.17px;
      }

      .cls-3 {
        fill: #545454;
      }

      .cls-4 {
        fill: url(#linear-gradient);
      }
    </style>
    <linearGradient id="linear-gradient" x1="512" y1="1024" x2="512" y2="12.62" gradientUnits="userSpaceOnUse">
      <stop offset=".01" stop-color="#2e2e2e"/>
      <stop offset=".5" stop-color="#404040"/>
      <stop offset="1" stop-color="#4f4f4f"/>
    </linearGradient>
    <linearGradient id="linear-gradient-2" x1="311.59" y1="509.13" x2="744.24" y2="509.13" gradientUnits="userSpaceOnUse">
      <stop offset="0" stop-color="#77ff81"/>
      <stop offset="1" stop-color="#4affe7"/>
    </linearGradient>
    <linearGradient id="linear-gradient-3" x1="571.59" y1="648.73" x2="735.86" y2="648.73" gradientUnits="userSpaceOnUse">
      <stop offset="0" stop-color="#5cffbf"/>
      <stop offset="1" stop-color="#4affe7"/>
    </linearGradient>
  </defs>
  <rect class="cls-4" x="0" y="0" width="1024" height="1024" rx="126.44" ry="126.44"/>
  <g>
    <path class="cls-3" d="M346.17,738.69c-4.96,0-9.95-1.06-14.62-3.24-12.18-5.68-19.96-17.9-19.96-31.34v-389.95c0-19.1,15.49-34.59,34.59-34.59h228.5c.92,0,1.85.04,2.77.11,4.22.34,42.39,3.95,81.59,25.85,24.47,13.68,44.12,31.58,58.39,53.22,17.79,26.96,26.81,59.07,26.81,95.42s-9.03,68.46-26.84,95.35c-14.3,21.59-33.99,39.41-58.5,52.96-39.24,21.68-77.43,25.06-81.66,25.37-.85.06-1.7.1-2.56.1h-83.86l-122.42,102.65c-6.35,5.32-14.25,8.08-22.23,8.08ZM380.77,348.74v281.22l75.25-63.1c6.23-5.22,14.1-8.08,22.22-8.08h94.74c5.31-.61,30.31-4.11,54.16-17.79,32.25-18.5,47.93-46.9,47.93-86.81s-15.72-68.54-48.07-87.29c-23.76-13.78-48.63-17.47-54.14-18.14h-192.09Z"/>
    <path class="cls-1" d="M346.17,738.69c-4.96,0-9.95-1.06-14.62-3.24-12.18-5.68-19.97-17.9-19.97-31.34v-389.95c0-19.1,15.49-34.59,34.59-34.59s34.59,15.49,34.59,34.59v315.81l75.25-63.1c6.23-5.22,14.1-8.08,22.22-8.08h94.74c5.31-.61,30.31-4.11,54.16-17.79,32.25-18.5,47.93-46.9,47.93-86.81s-15.72-68.54-48.07-87.29c-23.76-13.78-48.63-17.47-54.14-18.14h-35.91c-19.1,0-34.59-15.49-34.59-34.59s15.48-34.59,34.59-34.59h37.74c.92,0,1.85.04,2.77.11,4.22.34,42.39,3.95,81.59,25.85,24.47,13.68,44.12,31.58,58.39,53.22,17.79,26.96,26.81,59.07,26.81,95.42s-9.03,68.46-26.84,95.35c-14.3,21.59-33.99,39.41-58.5,52.96-39.24,21.68-77.43,25.06-81.66,25.37-.85.06-1.7.1-2.56.1h-83.86l-122.42,102.65c-6.35,5.32-14.25,8.08-22.23,8.08Z"/>
  </g>
  <line class="cls-2" x1="606.18" y1="593.36" x2="701.28" y2="704.1"/>
</svg>